PathFileType	4	(X/Y/Z)	Patient4_TMGait_0pt8_01_left_43.trc.trc
DataRate	CameraRate	NumFrames	NumMarkers	Units	OrigDataRate	OrigDataStartFrame	OrigNumFrames
88.050314465409	88.050314465409	4	33	mm	88.050314465409	89	       141
Frame#	Time	Sacral			L.Shoulder			Chest			R.Shoulder			Neck			R.ASIS			L.ASIS			R.Thigh.Superior			R.Thigh.Lateral			R.Thigh.Inferior			R.Patella			L.Thigh.Superior			L.Thigh.Lateral			L.Thigh.Inferior			L.Patella			L.Shank.Superior			L.Shank.Lateral			L.Shank.Inferior			R.Shank.Superior			R.Shank.Lateral			R.Shank.Inferior			R.Heel			R.Midfoot.Superior			R.Midfoot.Lateral			R.Toe			L.Heel			L.Midfoot.Lateral			L.Midfoot.Superior			L.Toe			L.Elbow			L.Wrist			R.Elbow			R.Wrist			
		X1	Y1	Z1	X2	Y2	Z2	X3	Y3	Z3	X4	Y4	Z4	X5	Y5	Z5	X6	Y6	Z6	X7	Y7	Z7	X8	Y8	Z8	X9	Y9	Z9	X10	Y10	Z10	X11	Y11	Z11	X12	Y12	Z12	X13	Y13	Z13	X14	Y14	Z14	X15	Y15	Z15	X16	Y16	Z16	X17	Y17	Z17	X18	Y18	Z18	X19	Y19	Z19	X20	Y20	Z20	X21	Y21	Z21	X22	Y22	Z22	X23	Y23	Z23	X24	Y24	Z24	X25	Y25	Z25	X26	Y26	Z26	X27	Y27	Z27	X28	Y28	Z28	X29	Y29	Z29	X30	Y30	Z30	X31	Y31	Z31	X32	Y32	Z32	X33	Y33	Z33	

89	48.709428571429	936.364037977599	996.265313163439	488.715738737555	1112.561909216055	1426.646413442838	309.727198644897	1212.106622982098	1357.017212658053	473.333931753580	1123.436561488968	1428.317426566292	645.349298746868	1091.683332550980	1486.248321599727	465.116655469142	1165.016585970182	934.918097188387	607.741510133070	1147.358295199641	953.452482639005	328.969342156918	1233.481490593465	750.905735312687	581.611060679040	1167.220016243734	632.567081376720	639.720038295335	1255.428189653228	591.842616952720	563.505357707916	1270.003842606154	502.655295874807	571.542198552059	1174.372541532390	728.602252620062	351.802120311273	1073.295925764565	621.398121796252	288.454097384140	1154.467920694826	528.892791523373	342.193093289126	1138.750152699186	444.308808862727	339.268090082036	1065.239880598459	392.083180329079	336.869187639403	920.828931470891	359.017365836741	291.216860310284	899.735649394439	232.742740077147	350.573745696608	1247.482131165126	411.353020167164	578.450300020884	1182.273579299638	302.402308174161	638.761741237785	1235.178832601276	211.021570996477	578.081599791757	1113.344896464349	42.635517345201	544.930127099593	1282.491800894128	98.643505743729	582.013830274214	1196.118452124284	37.343735025186	620.952414269432	1403.339292083511	50.582262635247	611.159291169830	705.718041548330	179.578362622791	395.100005161453	758.438391740097	127.368488957252	316.283723882761	864.213835499053	132.139125385165	334.673801504523	935.767500248698	30.912972722523	311.366048646891	1145.753164811360	1092.668977567736	162.939510904553	1399.206421242943	1107.706813538318	183.676153430399	992.531907861026	1106.769567943671	748.771350645095	959.895364219466	848.617643346166	759.882647847774	
90	48.720785714286	936.313257450464	997.989408962283	492.007456659289	1111.402440137812	1428.298694905151	312.019299175822	1212.521641343295	1358.373016256498	474.585405534108	1125.656693639153	1429.589093470441	647.464673573470	1092.032658443152	1487.694321675007	467.565248300054	1165.498612440331	936.449003359209	609.714535748806	1146.683741020439	954.947521701828	331.529806369762	1231.529558717622	749.908339181221	585.070767269989	1162.649091303765	632.737668315424	641.621503115794	1250.546163189315	591.024984898020	565.445921819597	1263.597280680410	501.904637823280	572.784562516426	1179.818640035219	731.969018159160	354.319611329402	1083.590193218164	621.723624584888	290.121758674770	1167.765146591934	531.396199780528	344.247053714584	1153.394622298527	445.491115161992	340.874732099882	1078.088503594410	393.427869868700	338.540296949032	932.500819682244	365.284829427258	293.003407358179	907.159354776946	239.823134638002	352.232142419400	1240.529059048910	410.916876981457	579.667843624166	1174.623996490145	302.258121073647	639.644442939512	1226.900489678313	210.703396441719	578.634248674928	1104.268741269423	42.601401028587	545.086262954370	1273.439154699957	98.536367276456	582.231332017461	1187.003957999455	37.344041370239	621.097719590903	1394.226258804054	50.420731011890	611.363424908911	711.748250612683	196.033205302022	397.091097206263	761.431912248415	141.123780569711	317.907492841685	867.709120568208	139.735123234261	336.032252545717	932.830436024253	31.429484295808	311.849181608028	1136.474271808886	1091.787220453493	168.106223807795	1390.639939749303	1096.759194183787	187.833966880858	1002.278029782234	1104.473557052661	752.635372403477	979.936174929709	845.124478146648	763.281222385094	
91	48.732142857143	936.110411519731	999.572570583130	495.191672921983	1109.895706441691	1429.792053135253	314.209544527782	1212.743655150394	1359.548896978039	475.607745754638	1127.880244933574	1430.636200105650	649.462839421690	1092.267873418052	1488.999164554098	469.939199070306	1165.803297356879	937.820255639603	611.438359351489	1145.913549478073	956.230235098636	333.964560687020	1229.164121387309	748.863861863006	588.124030957530	1157.929327896070	632.912229493016	643.462087893816	1245.330202753231	590.186875814311	567.183269424731	1256.822058966561	501.165312060878	573.968086658501	1185.052497934705	735.637417212025	356.746923266673	1093.847229259043	622.532033871414	291.659007307003	1180.861758082724	534.542151702497	346.313336913071	1168.062422674463	447.392668970578	342.553332031920	1091.284007752303	395.308906326433	340.197275551314	944.746134153542	371.523614122009	294.875606210882	915.698081370618	246.872382412757	354.020155784209	1233.334508376836	410.489081397701	580.797633405527	1166.879073457872	302.081045401497	640.483177248875	1218.542331623831	210.390287989402	579.127925942987	1095.168957865131	42.597199052984	545.245636442772	1264.439253853042	98.413448856723	582.506410901217	1177.876089571743	37.324642937254	621.231149613520	1385.127401683225	50.103755530188	611.542100082102	719.394609746789	211.223488929997	399.265273110993	766.377957511323	154.177515180661	319.727826811648	872.855135831865	147.504897289510	337.658162292406	932.296830244027	32.835707033346	312.570470637140	1127.107832603843	1091.003463875947	173.204763516072	1381.647492094507	1084.473435425181	191.926769593835	1012.339312688072	1102.134159577198	756.481624751254	1001.086130447840	841.916631801252	766.589985711847	
92	48.743500000000	935.777809507841	1001.002796842904	498.264117906914	1108.078876848568	1431.138820690103	316.290275939982	1212.776437223330	1360.554996678692	476.407605669577	1130.077419987976	1431.471442818153	651.332025255467	1092.399433169033	1490.178269540287	472.217063500626	1165.944837694085	939.055626545569	612.957259419912	1145.035409259620	957.293853296944	336.252793235732	1226.449855463028	747.866864141559	590.680376982612	1153.174106211799	633.123190949681	645.248575301815	1239.872975320270	589.357007230775	568.708387114343	1249.779738431480	500.460433459348	575.087712151931	1189.993098663502	739.614625765376	359.098675291266	1103.913583559647	623.879143369939	293.066975301541	1193.601164564021	538.354116833519	348.317165087993	1182.601155627688	450.053253297061	344.177116770191	1104.698371690636	397.743237541924	341.750885007724	957.403366873165	377.600975771220	296.776258491033	925.351024971112	253.668594347710	355.854522455124	1225.985422966808	410.083151047840	581.837991615110	1159.097756043369	301.898945771940	641.282690631320	1210.141951661930	210.093094421651	579.567727854231	1086.053377001311	42.626193159147	545.414406666362	1255.491824095468	98.301502316845	582.838759981397	1168.741487133970	37.297805771857	621.362133603009	1376.045111060879	49.673042868688	611.706978982821	728.550289516929	224.598251510487	401.534453545984	773.306537595371	165.979246720231	321.682210664692	879.768533251648	155.104398913544	339.469407046596	934.546862765730	35.132852164989	313.542566213154	1117.741820405294	1090.304903117810	178.235982427420	1372.126500576529	1070.884551499901	195.927938470915	1022.768896941363	1099.753514557181	760.256053056775	1023.284502638524	839.105541548035	769.747460993948	
